<?xml version="1.0" standalone="no"?>
<!DOCTYPE svg PUBLIC "-//W3C//DTD SVG 20010904//EN"
 "http://www.w3.org/TR/2001/REC-SVG-20010904/DTD/svg10.dtd">
<svg version="1.0" xmlns="http://www.w3.org/2000/svg"
 width="260.000000pt" height="260.000000pt" viewBox="0 0 260.000000 260.000000"
 preserveAspectRatio="xMidYMid meet">
<metadata>
Created by potrace 1.14, written by Peter Selinger 2001-2017
</metadata>
<g transform="translate(0.000000,260.000000) scale(0.100000,-0.100000)"
fill="#000000" stroke="none">
<path d="M1346 2579 c3 -6 0 -10 -7 -8 -33 4 -48 -1 -43 -16 4 -8 1 -15 -6
-15 -6 0 -8 -4 -5 -10 3 -5 1 -10 -5 -10 -6 0 -9 -4 -5 -9 3 -6 -3 -14 -12
-20 -16 -9 -16 -12 -3 -21 12 -8 13 -10 1 -10 -8 0 -11 -3 -8 -7 4 -3 -1 -12
-11 -20 -10 -9 -11 -11 -2 -7 12 6 13 5 3 -7 -10 -12 -10 -18 0 -29 9 -10 9
-11 0 -6 -7 4 -13 2 -13 -4 0 -6 -4 -9 -8 -6 -10 6 -9 -25 1 -42 5 -8 3 -10
-6 -6 -8 3 -18 0 -23 -7 -5 -8 -3 -10 6 -4 10 6 11 4 4 -6 -5 -8 -9 -18 -10
-24 0 -5 -2 -16 -2 -23 -1 -7 -7 -10 -12 -7 -6 4 -10 3 -9 -2 1 -4 1 -16 0
-26 -1 -14 -5 -16 -20 -7 -11 5 -22 6 -25 1 -3 -4 -17 -7 -30 -6 -15 2 -27 -3
-30 -12 -5 -12 -9 -13 -20 -4 -9 8 -16 8 -20 2 -4 -6 -13 -8 -21 -4 -10 3 -15
-1 -15 -13 0 -11 -4 -15 -8 -9 -10 15 -32 17 -32 3 0 -6 -3 -8 -7 -5 -3 4 -12
-1 -19 -11 -11 -14 -15 -14 -22 -4 -7 11 -12 10 -25 -3 -9 -9 -26 -17 -37 -18
-11 -1 -22 -7 -25 -15 -3 -7 -9 -11 -14 -8 -5 3 -14 -1 -21 -9 -7 -8 -18 -15
-24 -15 -6 0 -4 5 4 11 13 9 13 10 0 6 -8 -2 -14 -11 -14 -20 1 -9 -4 -13 -12
-10 -8 3 -14 0 -14 -7 0 -7 -8 -10 -20 -7 -10 3 -19 2 -18 -2 2 -19 -3 -31
-12 -26 -6 3 -13 -1 -16 -9 -3 -9 -10 -13 -15 -10 -6 3 -19 -6 -30 -20 -11
-15 -25 -24 -30 -21 -5 4 -9 -1 -9 -10 0 -9 -4 -14 -9 -10 -5 3 -12 -3 -15
-13 -4 -11 -18 -24 -32 -31 -17 -7 -24 -17 -20 -27 3 -8 2 -12 -4 -9 -5 3 -25
-10 -45 -30 -20 -19 -33 -35 -28 -35 4 -1 -2 -9 -14 -19 -12 -10 -19 -21 -16
-25 4 -3 1 -6 -6 -6 -7 0 -10 -4 -7 -9 3 -5 -5 -20 -19 -32 -13 -13 -25 -32
-25 -42 0 -10 -3 -16 -8 -13 -4 2 -12 -7 -19 -20 -6 -13 -7 -22 -2 -18 5 3 6
-2 3 -10 -3 -9 -11 -13 -17 -9 -6 4 -8 0 -4 -10 3 -9 1 -17 -6 -20 -7 -2 -13
-13 -13 -25 -3 -39 -4 -43 -14 -37 -5 3 -8 -10 -5 -35 3 -30 1 -39 -8 -33 -9
5 -9 3 0 -8 10 -12 10 -18 1 -27 -9 -9 -7 -16 7 -32 10 -11 14 -20 10 -20 -4
0 2 -8 13 -19 12 -10 22 -24 22 -31 0 -7 3 -10 7 -7 3 4 12 -1 20 -11 9 -10
12 -11 7 -2 -4 9 2 7 13 -5 11 -11 19 -23 16 -27 -6 -10 10 -10 23 0 5 4 21
-5 36 -20 15 -15 22 -28 17 -28 -6 0 -7 -5 -4 -11 11 -16 12 -69 2 -69 -4 0
-5 -5 -1 -12 10 -16 11 -68 1 -68 -5 0 -5 -5 -1 -12 5 -7 7 -30 5 -52 -2 -23
2 -42 10 -47 7 -4 12 -24 11 -47 -1 -26 3 -42 12 -45 9 -4 12 -17 10 -37 -2
-19 0 -29 6 -25 10 6 12 2 13 -37 1 -13 6 -26 11 -30 6 -4 11 -13 11 -20 1 -7
6 -12 12 -11 6 1 9 -6 6 -17 -3 -11 0 -20 6 -20 6 0 11 -7 11 -15 0 -8 6 -15
13 -15 8 0 7 -4 -3 -10 -13 -8 -12 -10 4 -10 11 0 16 -5 13 -14 -4 -10 1 -12
16 -9 18 4 19 3 7 -6 -13 -10 -13 -13 3 -22 9 -5 17 -15 17 -20 0 -6 -6 -7
-12 -3 -9 5 -8 2 1 -9 8 -10 16 -15 19 -13 7 8 34 -23 28 -33 -3 -5 8 -14 25
-20 27 -9 29 -12 18 -33 -6 -13 -8 -20 -4 -16 4 4 13 2 21 -5 7 -7 21 -18 29
-26 9 -7 14 -19 11 -27 -3 -8 -2 -13 2 -12 11 4 72 -26 72 -34 0 -5 7 -8 16
-8 10 0 14 -6 11 -14 -4 -10 0 -14 14 -11 17 3 21 -1 18 -21 -2 -14 26 -22 38
-12 11 8 12 7 7 -7 -5 -13 -4 -16 4 -11 7 4 12 3 12 -3 0 -6 6 -8 13 -5 7 2
22 -4 34 -15 11 -11 24 -17 27 -14 3 4 6 2 6 -4 0 -6 7 -14 16 -17 15 -6 15
-4 3 11 -7 10 2 5 21 -12 19 -16 28 -22 21 -12 -12 15 -12 17 2 11 9 -3 19
-15 23 -26 5 -16 8 -18 15 -7 7 12 9 11 10 -1 1 -8 1 -19 0 -24 -1 -5 5 -4 13
4 15 11 20 7 17 -12 0 -5 6 -8 14 -8 9 0 18 -7 21 -15 4 -8 10 -12 15 -9 5 3
9 -2 9 -10 0 -16 11 -20 38 -17 8 1 21 -4 30 -11 12 -10 14 -10 8 0 -4 7 -2
12 6 12 7 0 24 10 38 21 14 11 18 18 10 14 -10 -4 -9 -2 2 8 10 8 15 17 11 21
-4 4 0 4 9 1 9 -4 19 -1 23 4 3 6 12 8 18 5 7 -4 9 -4 5 0 -10 11 28 49 41 41
6 -3 11 -1 11 5 0 6 5 8 10 5 6 -3 10 -2 10 4 0 6 7 8 15 4 10 -3 15 0 13 8
-2 8 3 13 11 11 7 -1 20 5 28 15 8 10 11 11 7 3 -7 -13 -5 -13 9 -2 9 8 21 11
27 7 6 -4 9 -1 8 6 -2 7 3 14 10 15 6 1 17 2 23 3 5 0 8 5 5 10 -3 5 4 11 17
15 19 5 20 8 7 17 -12 8 -11 9 6 4 16 -4 33 5 68 40 26 25 51 43 55 40 5 -2 8
3 7 13 0 9 5 16 12 14 10 -2 16 10 14 29 -1 4 6 6 16 5 9 0 16 4 15 11 -2 7 7
23 20 36 30 32 62 71 59 75 -6 7 -1 22 7 18 5 -3 15 2 22 11 12 14 12 15 0 9
-9 -6 -8 -1 3 16 9 14 13 28 9 33 -5 4 1 5 11 1 17 -6 17 -5 5 11 -9 11 -10
14 -1 9 10 -6 17 5 10 19 -2 2 6 11 17 20 11 9 14 14 8 10 -9 -4 -11 -1 -7 9
3 9 10 13 15 10 5 -3 9 1 10 8 2 33 10 63 19 66 6 2 10 8 10 13 0 6 -6 7 -12
3 -9 -5 -9 -2 1 9 7 9 10 17 5 17 -5 0 -2 5 6 10 8 5 15 20 15 32 1 13 5 29 9
37 7 10 5 12 -5 7 -8 -4 -6 -1 3 6 12 10 16 28 15 60 -1 26 -5 49 -9 53 -7 8
10 45 27 57 6 5 4 8 -5 8 -9 0 -11 3 -4 8 12 8 28 45 16 38 -5 -3 -8 16 -8 42
1 46 21 86 38 76 4 -3 8 0 8 6 0 7 5 10 12 8 15 -5 48 22 48 40 0 7 5 10 10 7
6 -3 10 -1 10 5 0 6 5 8 12 4 6 -4 8 -3 4 4 -3 6 -2 13 4 17 6 4 8 11 5 16 -4
5 -1 9 4 9 6 0 11 7 11 16 0 9 5 12 13 8 6 -4 3 2 -7 14 -11 12 -14 22 -8 22
8 0 9 7 2 25 -5 14 -6 25 -1 25 5 0 7 10 3 22 -4 16 -2 19 9 13 8 -5 11 -4 6
1 -5 5 -14 9 -20 9 -7 0 -12 9 -12 20 -1 11 -7 19 -14 17 -7 -1 -10 2 -7 7 4
5 -1 16 -9 24 -11 12 -12 17 -2 20 9 4 9 6 0 6 -7 1 -13 7 -13 15 0 8 -8 17
-17 20 -14 6 -15 9 -4 15 10 7 9 10 -3 14 -9 4 -16 16 -16 27 0 11 -4 20 -10
20 -5 0 -19 19 -31 41 -11 23 -29 44 -40 46 -10 3 -19 12 -19 20 0 8 -4 12 -9
9 -5 -3 -12 1 -15 10 -3 8 -10 13 -15 9 -6 -3 -8 3 -6 14 3 15 -1 19 -16 16
-11 -2 -17 0 -14 4 2 5 -9 19 -25 31 -16 12 -27 27 -23 33 3 6 1 7 -5 3 -7 -4
-12 -2 -12 3 0 6 -7 11 -17 11 -9 0 -13 3 -10 7 4 3 2 12 -4 20 -10 11 -15 11
-27 1 -13 -10 -14 -10 -8 0 4 6 2 12 -3 12 -16 0 -57 43 -53 55 2 6 -2 4 -9
-2 -10 -10 -16 -9 -31 4 -10 9 -18 12 -18 8 0 -4 -9 2 -20 15 -13 15 -20 18
-20 9 0 -9 -3 -10 -8 -3 -13 20 -91 53 -95 40 -3 -8 -9 -7 -18 3 -9 9 -9 11
-1 7 6 -4 12 -5 12 -2 0 3 -10 10 -21 17 -15 8 -19 8 -15 0 4 -6 2 -11 -3 -11
-6 0 -11 6 -11 13 0 8 -4 7 -10 -3 -8 -13 -10 -12 -10 3 0 9 -3 16 -7 16 -22
-4 -47 2 -38 9 6 4 10 13 11 20 2 28 5 31 19 26 8 -4 15 -1 15 5 0 15 32 51
41 45 11 -6 22 33 13 47 -4 8 -3 9 4 5 14 -8 31 24 24 44 -8 23 -26 37 -41 32
-8 -3 -11 0 -7 7 5 7 -1 11 -17 11 -13 0 -33 9 -45 20 -12 12 -22 17 -22 13 0
-4 -6 1 -13 11 -7 9 -22 18 -35 19 -12 0 -22 7 -22 14 0 7 -6 10 -14 7 -8 -3
-17 0 -21 5 -3 6 -11 8 -17 5 -6 -4 -8 -3 -5 2 3 5 -8 17 -24 27 -17 9 -27 12
-23 6z m-911 -1347 c-3 -3 -11 0 -18 7 -9 10 -8 11 6 5 10 -3 15 -9 12 -12z"/>
<path d="M1810 2101 c0 -6 4 -13 10 -16 6 -3 7 1 4 9 -7 18 -14 21 -14 7z"/>
</g>
</svg>
